# xmcd
#
# Track frame offsets: 
#        150
#        12428
#        21176
#        33180
#        40066
#        51691
#        60312
#        69183
#        80374
#        91139
#        101701
#        111616
#        122175
#        133552
#
# Disc length: 1915 seconds
#
# Revision: 0
# Processed by: cddbd v1.5.1PL0 Copyright (c) Steve Scherf et al.
# Submitted via: ExactAudioCopy v0.95a5
#
DISCID=b807790e
DTITLE=Famous Country Music Makers - Waylon Jennings
DYEAR=2004
DGENRE=Country
TTITLE0=Don't Think Twice It's All Right
TTITLE1=Love's Gonna Live Here Again
TTITLE2=Crying
TTITLE3=It's So Easy
TTITLE4=Dream Baby
TTITLE5=Abilene
TTITLE6=Jole Blon
TTITLE7=Big Mamou
TTITLE8=Burning Memories
TTITLE9=Lorena
TTITLE10=When Sin Stops Love Begins
TTITLE11=Money
TTITLE12=Sally Was A Good Old Girl
TTITLE13=White Lightning
EXTD=
EXTT0=
EXTT1=
EXTT2=
EXTT3=
EXTT4=
EXTT5=
EXTT6=
EXTT7=
EXTT8=
EXTT9=
EXTT10=
EXTT11=
EXTT12=
EXTT13=
PLAYORDER=
